# xmcd
#
# Track frame offsets:
# 182
# 86657
# 123207
# 168295
# 218020
#
# Disc length: 3702 seconds
#
# Revision: 0
# Processed by: cddbd v1.4PL0 Copyright (c) Steve Scherf et al.
# Submitted via: Audion 2.5.0 (http://www.panic.com/audion/)
#
DISCID=370e7405
DTITLE=Tchaikovsky No.6 - tove lonskov and rodolfo llambias
DYEAR=1900
DGENRE=
TTITLE0=Symphony No.6 Pathetique
TTITLE1=Symphony No.6 Pathetique
TTITLE2=Symphony No.6 Pathetique
TTITLE3=Symphony No.6 Pathetique
TTITLE4=festival overture
EXTD=
EXTT0=
EXTT1=
EXTT2=
EXTT3=
EXTT4=
PLAYORDER=
